# xmcd
#
# Track frame offsets:
#	150
#	12862
#	38822
#	54749
#	76883
#	88701
#	102854
#	114834
#	126211
#	137208
#	155599
#	170506
#	186689
#	205784
#	213202
#	232029
#
# Disc length: 3189 seconds
#
# Revision: 0
# Processed by: cddbd v1.5.2PL0 Copyright (c) Steve Scherf et al.
# Submitted via: EasyCDDAExtractor 10.0.2.1
#
DISCID=da0c7310
DTITLE=Haruomi Hosono - Tropical Dandy
DYEAR=1975
DGENRE=Pop/Funk
TTITLE0=Chatanooga choo-choo
TTITLE1=Hurricane Dorothy
TTITLE2=Kinu kaido (Silk Road)
TTITLE3=Nettai yo (Tropical Night)
TTITLE4=Pekin Duck
TTITLE5=Hyouryu ki (Diary for Wandering)
TTITLE6=Honey Moon
TTITLE7=Sanji no komoriuta (Three O'clock Lullaby)
TTITLE8=Sanji no komoriuta
TTITLE9=Hyouryu ki
TTITLE10=Chu Chu Gatagoto (from caramel mama  1975)
TTITLE11=The Yellow Magic carnival   (from caramel mama 1975)
TTITLE12=A rose and wild beast (from TIN PAN ALLEY2 1977)
TTITLE13=Ballade of noise (from caramel mama 1975)
TTITLE14=Account of theme Part1~drift of an "evening primrose"   (sound track 
TTITLE14=1975)
TTITLE15=The theme Part2 of a "evening primrose" - account of drift   (sound t
TTITLE15=rack 1975)
EXTD=
EXTT0=
EXTT1=
EXTT2=
EXTT3=
EXTT4=
EXTT5=
EXTT6=
EXTT7=
EXTT8=
EXTT9=
EXTT10=
EXTT11=
EXTT12=
EXTT13=
EXTT14=
EXTT15=
PLAYORDER=
